<?xml version="1.0" standalone="no"?>
<!DOCTYPE svg PUBLIC "-//W3C//DTD SVG 20010904//EN"
 "http://www.w3.org/TR/2001/REC-SVG-20010904/DTD/svg10.dtd">
<svg version="1.0" xmlns="http://www.w3.org/2000/svg"
 width="512.000000pt" height="512.000000pt" viewBox="0 0 512.000000 512.000000"
 preserveAspectRatio="xMidYMid meet">

<g transform="translate(0.000000,512.000000) scale(0.100000,-0.100000)"
fill="#444444" stroke="none">
<path d="M3742 5113 c-35 -14 -37 -41 -42 -566 l-5 -519 -300 -163 c-165 -90
-303 -161 -307 -158 -5 2 -8 11 -8 19 0 29 -119 250 -152 281 -78 75 -175 86
-291 31 -127 -61 -187 -150 -174 -260 8 -62 118 -278 161 -316 l31 -27 -26
-54 c-39 -78 -83 -233 -75 -265 4 -17 19 -33 42 -43 32 -16 38 -16 62 -2 22
12 34 35 64 129 24 72 48 127 65 147 19 21 183 116 498 287 259 140 479 258
489 262 17 7 18 4 12 -31 -11 -58 -50 -127 -93 -166 -21 -19 -202 -133 -402
-254 -390 -236 -401 -245 -379 -307 11 -32 35 -48 72 -48 l24 0 -62 -186 -62
-186 -164 -68 c-91 -37 -166 -67 -168 -65 -2 1 13 59 32 129 42 145 42 156 17
187 -22 28 -83 32 -107 7 -9 -9 -43 -110 -76 -225 -66 -227 -64 -211 -87 -673
l-9 -185 -162 -340 c-90 -187 -167 -346 -173 -352 -7 -9 -51 -13 -156 -13
-138 0 -150 -2 -199 -26 -109 -54 -142 -127 -142 -316 l0 -128 -26 10 c-15 6
-177 10 -390 10 -406 0 -407 0 -478 -68 -68 -65 -76 -94 -76 -284 l0 -168
-105 0 c-99 0 -107 -2 -130 -25 -32 -31 -32 -69 0 -100 l24 -25 2239 0 2239 0
21 23 c29 31 29 77 -1 105 -21 20 -34 22 -135 22 l-112 0 0 998 0 998 -26 52
c-14 29 -42 65 -62 82 -66 55 -100 60 -374 60 l-248 0 0 647 0 648 40 80 c47
95 63 182 51 271 -11 78 -23 99 -61 112 -29 11 -30 13 -30 76 l0 66 460 0
c515 0 513 0 544 65 32 66 15 96 -124 216 -91 79 -117 106 -107 114 7 6 61 52
120 104 123 107 142 142 113 202 -31 66 -13 64 -533 67 l-473 3 0 33 c0 54
-56 90 -108 69z m853 -301 c-22 -20 -59 -53 -81 -73 -55 -49 -74 -78 -74 -114
0 -42 23 -73 118 -155 45 -40 82 -74 82 -76 0 -2 -175 -4 -390 -4 l-390 0 0
230 0 230 388 0 387 -1 -40 -37z m-1777 -909 c11 -10 43 -63 72 -118 68 -133
64 -162 -32 -211 -58 -29 -101 -31 -128 -4 -11 11 -42 65 -70 121 -67 133 -63
157 35 207 49 26 96 28 123 5z m882 -978 l0 -585 -27 0 c-40 0 -123 -42 -160
-80 -66 -68 -68 -76 -71 -387 -2 -156 -6 -283 -10 -283 -4 0 -24 5 -44 10 -33
10 -37 14 -33 38 15 82 56 445 56 493 1 83 -26 127 -215 351 l-165 196 90 270
90 270 187 113 c103 62 210 128 237 145 28 18 53 33 58 33 4 1 7 -262 7 -584z
m633 -746 c26 -7 44 -21 57 -42 19 -31 20 -59 20 -1009 l0 -978 -410 0 -410 0
0 244 0 245 -26 20 c-34 27 -64 27 -98 0 l-26 -20 0 -245 0 -244 -410 0 -410
0 0 621 0 621 29 29 29 29 346 0 346 0 32 -29 33 -29 5 -232 c5 -215 6 -233
24 -246 29 -21 82 -18 106 6 20 20 20 33 20 584 0 310 3 577 6 595 7 36 46 78
77 84 50 10 624 6 660 -4z m-1392 -142 c13 -10 21 -57 37 -217 11 -113 19
-206 17 -208 -1 -1 -57 -1 -123 0 l-121 3 49 65 c53 70 68 115 96 273 10 53
20 97 23 97 3 0 13 -6 22 -13z m-481 -873 l0 -56 -32 7 c-18 4 -35 9 -37 11
-3 3 60 94 66 94 2 0 3 -25 3 -56z m-29 -223 l29 -29 0 -381 0 -381 -410 0
-411 0 3 381 3 381 33 29 32 29 346 0 346 0 29 -29z m-997 -432 c45 -21 56
-63 56 -218 l0 -141 -410 0 -410 0 0 156 0 156 29 29 29 29 341 0 c233 0 348
-4 365 -11z"/>
</g>
</svg>
