<?xml version="1.0" standalone="no"?>
<!DOCTYPE svg PUBLIC "-//W3C//DTD SVG 20010904//EN"
 "http://www.w3.org/TR/2001/REC-SVG-20010904/DTD/svg10.dtd">
<svg version="1.0" xmlns="http://www.w3.org/2000/svg"
 width="512.000000pt" height="512.000000pt" viewBox="0 0 512.000000 512.000000"
 preserveAspectRatio="xMidYMid meet">

<g transform="translate(0.000000,512.000000) scale(0.100000,-0.100000)"
fill="#ffff" stroke="none">
<path d="M1905 4758 c-31 -84 -63 -162 -70 -174 -9 -13 -37 -27 -82 -39 -98
-26 -273 -98 -364 -150 l-79 -44 -171 76 -171 76 -199 -200 -199 -199 75 -169
76 -169 -60 -115 c-60 -118 -118 -265 -142 -358 l-12 -52 -96 -36 c-53 -21
-131 -51 -173 -67 l-78 -30 0 -283 0 -283 68 -25 c37 -14 115 -44 173 -66
l105 -41 13 -53 c24 -93 82 -239 142 -357 l59 -115 -74 -165 -74 -165 200
-202 201 -201 41 18 c23 10 97 43 166 73 l126 56 134 -68 c107 -54 257 -111
385 -146 6 -2 39 -80 74 -174 l64 -171 174 0 173 0 0 226 0 226 -27 32 c-50
59 -75 132 -82 241 l-6 100 -77 7 c-475 43 -905 384 -1063 842 -86 253 -88
559 -4 810 144 429 513 753 959 840 393 76 805 -44 1099 -320 194 -183 322
-414 377 -684 19 -92 25 -315 11 -407 l-8 -53 264 0 c295 0 328 -5 418 -66
l52 -35 54 22 53 21 -2 285 -3 285 -163 63 c-90 35 -167 67 -172 71 -4 5 -13
32 -19 59 -22 88 -81 237 -140 350 l-58 110 75 168 75 169 -200 200 -199 199
-169 -74 -168 -75 -101 54 c-110 58 -244 112 -346 139 -36 10 -69 21 -73 25
-5 4 -37 81 -72 171 l-63 164 -284 3 -285 2 -58 -152z"/>
<path d="M2746 3415 c-31 -11 -116 -90 -360 -334 -177 -177 -326 -321 -331
-321 -6 0 -64 54 -130 121 -138 138 -170 159 -251 159 -165 0 -271 -161 -203
-310 29 -64 404 -437 476 -474 66 -33 118 -41 173 -26 40 10 87 54 463 428
242 241 427 433 439 456 31 60 23 160 -17 218 -57 82 -166 116 -259 83z"/>
<path d="M3275 2426 c-71 -31 -124 -115 -125 -193 l0 -43 89 0 90 0 3 33 3 32
319 3 c340 2 336 3 336 -46 0 -22 2 -23 88 -20 l87 3 -1 40 c-1 62 -11 91 -47
131 -63 73 -69 74 -462 73 -269 0 -357 -3 -380 -13z"/>
<path d="M2386 1999 l-26 -31 0 -276 c0 -248 2 -281 19 -318 73 -160 303 -263
699 -314 84 -11 159 -20 167 -20 8 0 20 23 30 58 9 31 27 75 40 97 33 58 116
132 183 163 50 24 69 27 162 27 93 0 112 -3 162 -27 106 -50 203 -167 226
-274 l8 -39 65 3 c98 5 313 39 419 67 129 35 271 105 329 163 85 86 86 88 89
410 l3 282 -30 30 -29 30 -200 0 -200 0 -4 -192 c-5 -217 -10 -238 -79 -313
-22 -23 -63 -53 -92 -66 l-52 -24 -615 0 -615 0 -55 26 c-71 33 -125 90 -150
157 -17 45 -20 78 -20 232 l0 180 -204 0 -204 0 -26 -31z"/>
<path d="M2980 1858 c0 -154 2 -177 20 -205 36 -60 12 -58 655 -58 537 0 593
2 621 17 55 30 64 66 64 252 l0 166 -680 0 -680 0 0 -172z"/>
<path d="M3552 1204 c-117 -58 -163 -191 -108 -309 47 -102 157 -159 262 -136
134 30 216 159 184 289 -36 151 -199 226 -338 156z"/>
<path d="M2472 703 c3 -402 2 -392 81 -457 l39 -31 1054 -3 c959 -2 1057 -1
1087 14 45 23 66 44 88 86 18 34 19 64 19 392 l0 355 -62 -29 c-126 -58 -376
-115 -618 -141 l-116 -12 -26 -56 c-72 -154 -260 -252 -424 -222 -127 24 -246
114 -294 223 l-25 55 -145 16 c-248 29 -483 85 -604 143 -28 13 -51 24 -53 24
-2 0 -3 -161 -1 -357z"/>
</g>
</svg>
